<svg width="182" height="57" viewBox="0 0 182 57" fill="none" xmlns="http://www.w3.org/2000/svg">
<path d="M167.465 57V28H174.482C176.181 28 177.531 28.3222 178.532 28.9667C179.556 29.5872 180.301 30.4942 180.767 31.6877C181.232 32.8811 181.465 34.3251 181.465 36.0198C181.465 37.5473 181.197 38.872 180.662 39.9938C180.15 41.1156 179.382 41.9868 178.358 42.6074C177.334 43.2041 176.053 43.5025 174.517 43.5025H171.41V57H167.465ZM171.41 40.6025H173.225C174.366 40.6025 175.262 40.4712 175.914 40.2086C176.565 39.9461 177.031 39.4926 177.31 38.8481C177.59 38.1798 177.729 37.249 177.729 36.0556C177.729 34.6712 177.624 33.6091 177.415 32.8691C177.229 32.1292 176.821 31.616 176.193 31.3296C175.565 31.0432 174.587 30.9 173.26 30.9H171.41V40.6025Z" fill="white"/>
<path d="M155.982 57C153.94 57 152.374 56.5869 151.284 55.7607C150.193 54.9345 149.451 53.7778 149.057 52.2906C148.662 50.7798 148.465 49.0212 148.465 47.0147V28H152.224V47.1917C152.224 48.4192 152.305 49.5405 152.467 50.5556C152.63 51.5706 152.978 52.3732 153.511 52.9634C154.068 53.5535 154.892 53.8486 155.982 53.8486C157.096 53.8486 157.92 53.5535 158.453 52.9634C158.987 52.3732 159.335 51.5706 159.497 50.5556C159.66 49.5405 159.741 48.4192 159.741 47.1917V28H163.465V47.0147C163.465 49.0212 163.268 50.7798 162.873 52.2906C162.479 53.7778 161.736 54.9345 160.646 55.7607C159.579 56.5869 158.024 57 155.982 57Z" fill="white"/>
<path d="M136.982 57C135.131 57 133.652 56.6255 132.546 55.8765C131.44 55.1275 130.65 54.0625 130.176 52.6816C129.702 51.2772 129.465 49.6388 129.465 47.7663V36.9879C129.465 35.1154 129.702 33.5121 130.176 32.178C130.673 30.8204 131.463 29.7906 132.546 29.0884C133.652 28.3628 135.131 28 136.982 28C138.833 28 140.3 28.3628 141.384 29.0884C142.467 29.814 143.246 30.8438 143.72 32.178C144.217 33.5121 144.465 35.1154 144.465 36.9879V47.8015C144.465 49.6505 144.217 51.2655 143.72 52.6465C143.246 54.0274 142.467 55.1041 141.384 55.8765C140.3 56.6255 138.833 57 136.982 57ZM136.982 53.8753C137.998 53.8753 138.765 53.6646 139.284 53.2433C139.803 52.7986 140.153 52.1901 140.334 51.4177C140.515 50.6219 140.605 49.6973 140.605 48.6441V36.1804C140.605 35.1271 140.515 34.226 140.334 33.477C140.153 32.7046 139.803 32.1195 139.284 31.7215C138.765 31.3002 137.998 31.0896 136.982 31.0896C135.966 31.0896 135.187 31.3002 134.645 31.7215C134.126 32.1195 133.776 32.7046 133.596 33.477C133.415 34.226 133.325 35.1271 133.325 36.1804V48.6441C133.325 49.6973 133.415 50.6219 133.596 51.4177C133.776 52.1901 134.126 52.7986 134.645 53.2433C135.187 53.6646 135.966 53.8753 136.982 53.8753Z" fill="white"/>
<path d="M111.465 57V28H117.342C119.289 28 120.9 28.2626 122.174 28.7877C123.448 29.2889 124.386 30.1123 124.986 31.258C125.611 32.3798 125.924 33.8597 125.924 35.6975C125.924 36.8193 125.804 37.8457 125.563 38.7765C125.323 39.6835 124.938 40.4593 124.41 41.1037C123.881 41.7243 123.184 42.1778 122.318 42.4642L126.465 57H122.535L118.712 43.3951H115.539V57H111.465ZM115.539 40.4951H117.09C118.244 40.4951 119.181 40.3519 119.902 40.0654C120.624 39.779 121.152 39.2897 121.489 38.5975C121.825 37.9054 121.994 36.9387 121.994 35.6975C121.994 34.0029 121.681 32.7856 121.056 32.0457C120.431 31.2819 119.193 30.9 117.342 30.9H115.539V40.4951Z" fill="white"/>
<path d="M99.6538 57C97.9026 57 96.4971 56.626 95.4372 55.8779C94.4003 55.1064 93.64 53.996 93.1561 52.5466C92.6953 51.0971 92.4648 49.3555 92.4648 47.3216V37.8186C92.4648 35.738 92.6722 33.973 93.087 32.5236C93.5248 31.0508 94.2851 29.9287 95.3681 29.1572C96.4741 28.3857 98.0063 28 99.9648 28C101.716 28 103.122 28.3039 104.181 28.9117C105.264 29.4962 106.048 30.4079 106.532 31.6469C107.016 32.8626 107.257 34.4055 107.257 36.2757V37.3277H103.594V36.451C103.594 35.212 103.513 34.2068 103.352 33.4353C103.191 32.6405 102.857 32.056 102.35 31.682C101.866 31.2846 101.094 31.0859 100.034 31.0859C98.8819 31.0859 98.0409 31.3547 97.5109 31.8924C97.004 32.4301 96.6814 33.1665 96.5432 34.1016C96.428 35.0133 96.3704 36.0536 96.3704 37.2225V47.7424C96.3704 49.0983 96.4625 50.2322 96.6469 51.1439C96.8543 52.0556 97.2344 52.7336 97.7874 53.1778C98.3404 53.6219 99.1238 53.844 100.138 53.844C101.151 53.844 101.935 53.5985 102.488 53.1076C103.041 52.6167 103.421 51.892 103.628 50.9335C103.836 49.975 103.939 48.7827 103.939 47.3567V45.393H100.38V42.5877H107.465V56.6493H105.011L104.631 53.3882C104.262 54.4401 103.686 55.3051 102.903 55.9831C102.119 56.661 101.036 57 99.6538 57Z" fill="white"/>
<path d="M173.877 19.3221V0.165527H176.55V17.4064H181.445V19.3221H173.877Z" fill="white"/>
<path d="M161.197 19.3221L165.265 0.165527H167.842L171.934 19.3221H169.403L168.528 14.4975H164.626L163.704 19.3221H161.197ZM164.981 12.5818H168.174L166.565 3.94954L164.981 12.5818Z" fill="white"/>
<path d="M156.513 19.3221V0.165527H159.138V19.3221H156.513Z" fill="white"/>
<path d="M149 19.535C147.645 19.535 146.588 19.2512 145.831 18.6836C145.09 18.116 144.57 17.3513 144.27 16.3895C143.987 15.4277 143.845 14.3556 143.845 13.1731V6.40918C143.845 5.1163 143.987 3.98898 144.27 3.02721C144.57 2.06544 145.09 1.3244 145.831 0.804103C146.588 0.268034 147.645 0 149 0C150.199 0 151.145 0.220733 151.838 0.662202C152.548 1.10367 153.052 1.73434 153.352 2.55421C153.667 3.37408 153.825 4.3595 153.825 5.51047V7.02408H151.295V5.67602C151.295 4.96652 151.255 4.34373 151.176 3.80767C151.113 3.25583 150.924 2.83013 150.609 2.53056C150.293 2.23099 149.765 2.08121 149.024 2.08121C148.267 2.08121 147.715 2.24676 147.369 2.57786C147.022 2.89319 146.793 3.35043 146.683 3.94957C146.588 4.53293 146.541 5.21879 146.541 6.00712V13.5988C146.541 14.5606 146.62 15.3253 146.777 15.8929C146.935 16.4447 147.195 16.8389 147.558 17.0754C147.92 17.3119 148.409 17.4301 149.024 17.4301C149.749 17.4301 150.27 17.2725 150.585 16.9571C150.9 16.626 151.097 16.1767 151.176 15.6091C151.255 15.0415 151.295 14.3793 151.295 13.6225V12.2034H153.825V13.6225C153.825 14.7892 153.683 15.8219 153.399 16.7206C153.116 17.6036 152.627 18.2973 151.933 18.8018C151.239 19.2906 150.262 19.535 149 19.535Z" fill="white"/>
<path d="M131.705 19.3221V0.165527H133.526L138.965 12.8893V0.165527H141.188V19.3221H139.485L133.975 6.2436V19.3221H131.705Z" fill="white"/>
<path d="M119.023 19.3221L123.091 0.165527H125.669L129.761 19.3221H127.23L126.355 14.4975H122.453L121.53 19.3221H119.023ZM122.807 12.5818H126L124.392 3.94954L122.807 12.5818Z" fill="white"/>
<path d="M107.569 19.3221V0.165527H109.39L114.83 12.8893V0.165527H117.053V19.3221H115.35L109.84 6.2436V19.3221H107.569Z" fill="white"/>
<path d="M101.845 19.3221V0.165527H104.47V19.3221H101.845Z" fill="white"/>
<path d="M92.4648 19.3221V0.165527H99.8673V2.08118H95.1373V8.46671H98.8031V10.3587H95.1373V19.3221H92.4648Z" fill="white"/>
<path d="M41.8443 0.126776C55.17 0.0123052 68.4962 -0.00434618 81.8221 0.0766162C81.8341 1.63717 81.9076 3.27099 81.9544 4.83716C82.0988 6.83312 81.8598 11.1156 81.7978 13.2768C76.8291 13.4025 71.8585 13.436 66.8884 13.3769C64.1847 13.3259 61.4847 13.1018 58.7974 13.0464C58.6599 15.9307 59.1151 19.9686 58.8202 22.3931C65.3425 22.359 71.865 22.3627 78.3873 22.4043C78.6971 24.5195 78.454 26.3586 78.4408 28.4759C78.428 30.502 78.4672 32.5558 78.503 34.5834C73.8741 34.465 69.2045 34.8113 64.5685 34.556C62.7046 34.4531 60.6289 34.1963 58.7894 34.4269C58.61 40.7041 60.4443 49.0133 55.6571 53.764C54.8046 54.6099 53.2192 55.8434 52.0391 56.1465C46.9379 57.4567 40.2104 57.3216 35.2921 55.3008C34.1535 54.7882 30.962 51.7984 29.7805 51.6636C29.1655 51.5937 27.0384 54.0979 26.2631 54.4719C21.8209 56.6152 19.0179 56.9805 14.2364 56.9457C9.87434 56.9141 6.96552 56.4195 3.65904 53.2845C2.61361 52.1506 0.955887 50.3547 0.687571 48.8185C-0.322454 43.0358 0.0775988 36.3657 0.0808476 30.5049L0.0717092 0.125527C5.44544 0.0460213 11.4894 -0.0692822 16.8372 0.171315C17.0945 12.1656 16.7085 24.271 16.8703 36.2722C16.8805 37.0306 17.4243 38.7219 17.8231 39.3581C19.0399 40.1929 20.6968 39.6139 20.7371 37.8729C21.0274 25.3346 20.5675 12.7336 20.8438 0.196292C24.6255 -0.113613 33.8326 -0.0114229 37.7859 0.192752C37.7392 4.61925 37.4235 37.4404 38.0878 38.8636C38.2791 39.2736 38.7344 39.7421 39.1664 39.8893C40.0633 40.1946 41.0373 39.5969 41.8319 39.2191C42.0558 35.3417 41.898 29.9548 41.8948 25.9927L41.8443 0.126776Z" fill="#0D7FEE"/>
</svg>
