<svg width="129" height="47" viewBox="0 0 129 47" fill="none" xmlns="http://www.w3.org/2000/svg">
<path d="M122.712 47V36H125.374C126.018 36 126.53 36.1222 126.91 36.3667C127.298 36.6021 127.581 36.9461 127.757 37.3988C127.934 37.8514 128.022 38.3992 128.022 39.042C128.022 39.6214 127.921 40.1239 127.718 40.5494C127.523 40.9749 127.232 41.3053 126.844 41.5407C126.455 41.7671 125.97 41.8802 125.387 41.8802H124.208V47H122.712ZM124.208 40.7802H124.897C125.33 40.7802 125.669 40.7305 125.917 40.6309C126.164 40.5313 126.34 40.3593 126.446 40.1148C126.552 39.8613 126.605 39.5082 126.605 39.0556C126.605 38.5305 126.566 38.1276 126.486 37.8469C126.415 37.5663 126.261 37.3716 126.023 37.263C125.784 37.1543 125.413 37.1 124.91 37.1H124.208V40.7802Z" fill="#4670C3"/>
<path d="M118.357 47C117.582 47 116.988 46.8433 116.575 46.5299C116.161 46.2165 115.879 45.7778 115.73 45.2137C115.58 44.6406 115.505 43.9735 115.505 43.2125V36H116.931V43.2796C116.931 43.7452 116.962 44.1705 117.023 44.5556C117.085 44.9406 117.217 45.245 117.42 45.4689C117.631 45.6927 117.943 45.8046 118.357 45.8046C118.779 45.8046 119.092 45.6927 119.294 45.4689C119.496 45.245 119.628 44.9406 119.69 44.5556C119.752 44.1705 119.783 43.7452 119.783 43.2796V36H121.195V43.2125C121.195 43.9735 121.12 44.6406 120.971 45.2137C120.821 45.7778 120.539 46.2165 120.126 46.5299C119.721 46.8433 119.131 47 118.357 47Z" fill="#4670C3"/>
<path d="M111.15 47C110.448 47 109.887 46.8579 109.468 46.5738C109.048 46.2897 108.748 45.8858 108.569 45.362C108.389 44.8293 108.299 44.2078 108.299 43.4976V39.4092C108.299 38.699 108.389 38.0908 108.569 37.5847C108.757 37.0698 109.057 36.6792 109.468 36.4128C109.887 36.1376 110.448 36 111.15 36C111.852 36 112.409 36.1376 112.82 36.4128C113.231 36.6881 113.526 37.0787 113.706 37.5847C113.894 38.0908 113.988 38.699 113.988 39.4092V43.5109C113.988 44.2123 113.894 44.8249 113.706 45.3487C113.526 45.8725 113.231 46.2809 112.82 46.5738C112.409 46.8579 111.852 47 111.15 47ZM111.15 45.8148C111.535 45.8148 111.827 45.7349 112.023 45.5751C112.22 45.4064 112.353 45.1755 112.422 44.8826C112.49 44.5807 112.524 44.23 112.524 43.8305V39.1029C112.524 38.7034 112.49 38.3616 112.422 38.0775C112.353 37.7845 112.22 37.5626 112.023 37.4116C111.827 37.2518 111.535 37.1719 111.15 37.1719C110.765 37.1719 110.469 37.2518 110.264 37.4116C110.067 37.5626 109.934 37.7845 109.866 38.0775C109.797 38.3616 109.763 38.7034 109.763 39.1029V43.8305C109.763 44.23 109.797 44.5807 109.866 44.8826C109.934 45.1755 110.067 45.4064 110.264 45.5751C110.469 45.7349 110.765 45.8148 111.15 45.8148Z" fill="#4670C3"/>
<path d="M101.471 47V36H103.701C104.439 36 105.05 36.0996 105.533 36.2988C106.017 36.4889 106.372 36.8012 106.6 37.2358C106.837 37.6613 106.956 38.2226 106.956 38.9198C106.956 39.3453 106.91 39.7346 106.819 40.0877C106.728 40.4317 106.582 40.7259 106.381 40.9704C106.181 41.2058 105.916 41.3778 105.588 41.4864L107.161 47H105.67L104.22 41.8395H103.017V47H101.471ZM103.017 40.7395H103.605C104.042 40.7395 104.398 40.6852 104.672 40.5765C104.945 40.4679 105.146 40.2823 105.273 40.0198C105.401 39.7572 105.465 39.3905 105.465 38.9198C105.465 38.277 105.346 37.8152 105.109 37.5346C104.872 37.2449 104.403 37.1 103.701 37.1H103.017V40.7395Z" fill="#4670C3"/>
<path d="M96.991 47C96.3268 47 95.7936 46.8581 95.3916 46.5744C94.9983 46.2817 94.7099 45.8605 94.5264 45.3108C94.3516 44.761 94.2642 44.1004 94.2642 43.3289V39.7243C94.2642 38.9351 94.3428 38.2656 94.5001 37.7158C94.6662 37.1572 94.9546 36.7316 95.3654 36.4389C95.7849 36.1463 96.3661 36 97.109 36C97.7732 36 98.3064 36.1153 98.7084 36.3458C99.1192 36.5675 99.4163 36.9133 99.5999 37.3833C99.7834 37.8444 99.8752 38.4297 99.8752 39.1391V39.5381H98.4855V39.2056C98.4855 38.7356 98.4549 38.3543 98.3937 38.0617C98.3326 37.7602 98.2058 37.5385 98.0136 37.3966C97.83 37.2459 97.5372 37.1705 97.1352 37.1705C96.6982 37.1705 96.3792 37.2725 96.1782 37.4764C95.9859 37.6804 95.8636 37.9597 95.8111 38.3144C95.7674 38.6602 95.7456 39.0548 95.7456 39.4982V43.4885C95.7456 44.0028 95.7805 44.4329 95.8504 44.7787C95.9291 45.1245 96.0733 45.3817 96.2831 45.5502C96.4928 45.7187 96.79 45.8029 97.1745 45.8029C97.5591 45.8029 97.8562 45.7098 98.066 45.5236C98.2758 45.3374 98.42 45.0625 98.4986 44.6989C98.5773 44.3353 98.6166 43.8831 98.6166 43.3422V42.5973H97.2663V41.5333H99.9538V46.867H99.023L98.8788 45.63C98.739 46.029 98.5205 46.3571 98.2233 46.6143C97.9262 46.8714 97.5154 47 96.991 47Z" fill="#4670C3"/>
<path d="M83.811 46.8726V36.093H85.3148V45.7946H88.0696V46.8726H83.811Z" fill="#4670C3"/>
<path d="M76.6758 46.8726L78.9648 36.093H80.4154L82.7176 46.8726H81.2937L80.8013 44.1577H78.6055L78.0864 46.8726H76.6758ZM78.8051 43.0798H80.6017L79.6967 38.2223L78.8051 43.0798Z" fill="#4670C3"/>
<path d="M74.041 46.8726V36.093H75.5182V46.8726H74.041Z" fill="#4670C3"/>
<path d="M69.8128 46.9925C69.0498 46.9925 68.4554 46.8328 68.0295 46.5134C67.6125 46.194 67.3197 45.7637 67.1512 45.2225C66.9915 44.6813 66.9116 44.078 66.9116 43.4126V39.6065C66.9116 38.879 66.9915 38.2446 67.1512 37.7034C67.3197 37.1622 67.6125 36.7453 68.0295 36.4525C68.4554 36.1508 69.0498 36 69.8128 36C70.4871 36 71.0194 36.1242 71.4098 36.3726C71.809 36.621 72.0929 36.9759 72.2615 37.4373C72.4389 37.8986 72.5276 38.4531 72.5276 39.1008V39.9525H71.1037V39.1939C71.1037 38.7947 71.0815 38.4442 71.0371 38.1426C71.0016 37.8321 70.8952 37.5925 70.7177 37.424C70.5403 37.2554 70.2431 37.1711 69.8261 37.1711C69.4002 37.1711 69.0897 37.2643 68.8945 37.4506C68.6993 37.628 68.5707 37.8853 68.5086 38.2224C68.4554 38.5507 68.4287 38.9366 68.4287 39.3803V43.6521C68.4287 44.1933 68.4731 44.6236 68.5618 44.943C68.6505 45.2535 68.7969 45.4754 69.001 45.6084C69.205 45.7415 69.4801 45.8081 69.8261 45.8081C70.2342 45.8081 70.527 45.7193 70.7044 45.5419C70.8819 45.3556 70.9928 45.1027 71.0371 44.7833C71.0815 44.4639 71.1037 44.0913 71.1037 43.6655V42.867H72.5276V43.6655C72.5276 44.322 72.4478 44.9031 72.2881 45.4088C72.1284 45.9056 71.8534 46.296 71.463 46.5799C71.0726 46.855 70.5225 46.9925 69.8128 46.9925Z" fill="#4670C3"/>
<path d="M60.0801 46.8726V36.093H61.1048L64.1657 43.2528V36.093H65.4166V46.8726H64.4584L61.3577 39.5132V46.8726H60.0801Z" fill="#4670C3"/>
<path d="M52.9453 46.8726L55.2343 36.093H56.6849L58.9872 46.8726H57.5632L57.0708 44.1577H54.875L54.356 46.8726H52.9453ZM55.0746 43.0798H56.8712L55.9662 38.2223L55.0746 43.0798Z" fill="#4670C3"/>
<path d="M46.4995 46.8726V36.093H47.5242L50.5851 43.2528V36.093H51.8361V46.8726H50.8779L47.7771 39.5132V46.8726H46.4995Z" fill="#4670C3"/>
<path d="M43.2783 46.8726V36.093H44.7555V46.8726H43.2783Z" fill="#4670C3"/>
<path d="M38 46.873V36.0935H42.1654V37.1715H39.5038V40.7646H41.5666V41.8293H39.5038V46.873H38Z" fill="#4670C3"/>
<path d="M90.1914 19.698H97.7514C97.7514 22.806 100.271 24.234 109.847 24.234C117.785 24.234 120.179 23.352 120.179 21.042C120.179 18.606 118.499 18.186 108.965 17.724C96.1554 17.136 91.0734 15.12 91.0734 8.526C91.0734 2.058 97.6674 0 108.671 0C119.759 0 126.479 2.772 126.479 10.038H118.919C118.919 6.804 115.685 6.006 107.831 6.006C100.397 6.006 98.6334 6.72 98.6334 8.904C98.6334 11.172 100.397 11.592 108.965 12.096C120.557 12.726 127.739 13.356 127.739 20.79C127.739 28.644 120.305 30.24 109.427 30.24C97.3734 30.24 90.1914 28.182 90.1914 19.698Z" fill="white"/>
<path d="M91.0536 6.42617H67.5336V12.3902H91.0536V17.8502H67.5336V23.8142H91.0536V29.8202H59.9736V0.420166H91.0536V6.42617Z" fill="white"/>
<path d="M53.214 0.420166H61.404L49.812 29.8202H39.354L30.702 7.68617L22.008 29.8202H11.592L0 0.420166H8.148L16.842 23.5202L26.04 0.420166H35.322L44.562 23.5622L53.214 0.420166Z" fill="white"/>
<circle cx="26.5" cy="41.5" r="5.5" transform="rotate(180 26.5 41.5)" fill="#456AB3"/>
<circle cx="15" cy="42" r="4" transform="rotate(180 15 42)" fill="#456AB3"/>
<circle cx="7" cy="42" r="2" transform="rotate(180 7 42)" fill="#456AB3"/>
</svg>
